<?xml version="1.0" encoding="UTF-8" standalone="no"?>
<!-- Generator: Adobe Illustrator 16.0.4, SVG Export Plug-In . SVG Version: 6.00 Build 0)  -->

<svg
   xmlns:dc="http://purl.org/dc/elements/1.1/"
   xmlns:cc="http://creativecommons.org/ns#"
   xmlns:rdf="http://www.w3.org/1999/02/22-rdf-syntax-ns#"
   xmlns:svg="http://www.w3.org/2000/svg"
   xmlns="http://www.w3.org/2000/svg"
   xmlns:sodipodi="http://sodipodi.sourceforge.net/DTD/sodipodi-0.dtd"
   xmlns:inkscape="http://www.inkscape.org/namespaces/inkscape"
   version="1.1"
   id="Layer_10"
   x="0px"
   y="0px"
   width="569.48px"
   height="569.48px"
   viewBox="0 0 569.48 569.48"
   enable-background="new 0 0 569.48 569.48"
   xml:space="preserve"
   sodipodi:docname="sunshine.svg"
   inkscape:version="0.92.4 (5da689c313, 2019-01-14)"><metadata
   id="metadata89"><rdf:RDF><cc:Work
       rdf:about=""><dc:format>image/svg+xml</dc:format><dc:type
         rdf:resource="http://purl.org/dc/dcmitype/StillImage" /></cc:Work></rdf:RDF></metadata><defs
   id="defs87" /><sodipodi:namedview
   pagecolor="#ffffff"
   bordercolor="#666666"
   borderopacity="1"
   objecttolerance="10"
   gridtolerance="10"
   guidetolerance="10"
   inkscape:pageopacity="0"
   inkscape:pageshadow="2"
   inkscape:window-width="1920"
   inkscape:window-height="1016"
   id="namedview85"
   showgrid="false"
   inkscape:zoom="1.6576527"
   inkscape:cx="424.69694"
   inkscape:cy="284.73999"
   inkscape:window-x="0"
   inkscape:window-y="27"
   inkscape:window-maximized="1"
   inkscape:current-layer="Layer_10" />
<g
   id="g82">
	<path
   fill="none"
   d="M400.977,105.268c-1.544-0.646-3.231-1.08-5.02-1.23c-18.497-3.983-34.643-1.427-36.288,5.843l7.577,3.408   c3.231-3.038,9.071-4.8,16.081-4.923c-2.242,2.221-3.609,5.111-3.609,8.281c0,6.998,6.62,12.671,14.784,12.671   c8.165,0,14.782-5.673,14.782-12.671c0-0.657-0.075-1.297-0.188-1.928c5.373,2.993,9.217,6.71,10.684,10.452l8.318,0.218   C429.654,118.535,417.77,109.905,400.977,105.268z"
   id="path2" />
	<path
   fill="none"
   d="M323.291,43.429c53.527,0,102.28,20.427,138.9,53.906c-0.04-0.04-0.077-0.073-0.118-0.114   c-15-14.333-27.334-31.667-45-43c-4.647-2.84-9.495-5.277-14.387-7.472c-7.145-1.754-14.434-3.081-21.674-4.224   c-31.061-4.902-62.678-5.235-93.754-0.302c-14.739,2.34-29.365,5.564-43.615,10.021c-13.582,4.248-27.562,9.071-39.886,16.293   c-16.175,9.479-28.455,22.825-38.872,37.839c2.6,0.719,5.126,1.67,7.508,2.872C209.998,68.768,263.681,43.429,323.291,43.429z"
   id="path4" />
	<path
   fill="none"
   d="M476.104,99.901c6.214,1.164,12.175,3.626,17.045,7.443c-8.203-9.801-17.238-18.878-26.997-27.129   c0.706,1.204,1.388,2.422,2.022,3.666C470.901,89.228,472.79,94.865,476.104,99.901z"
   id="path6" />
	<path
   fill="none"
   d="M107.254,405.312c-8.612-10.834-15.418-22.944-20.014-35.896L0,408.566V569.48l127.404-144.347   C120.086,419.344,113.28,412.893,107.254,405.312z"
   id="path8" />
	<path
   fill="none"
   d="M502.847,119.79c3.918,8.396,4.975,18.188,4.938,27.315c-0.014,3.283-0.169,6.566-0.429,9.846   c13.979,27.79,21.859,59.173,21.859,92.402c0,113.73-92.195,205.925-205.925,205.925c-113.729,0-205.924-92.196-205.924-205.925   c0-8.365,0.512-16.609,1.481-24.713c-1.215,1.859-2.4,3.745-3.488,5.696c-4.693,8.419-9.348,16.785-13.39,25.472   c0.989,34.5,9.874,67.02,24.904,95.823l-34.108,15.306c4.232,12.325,10.441,23.929,18.729,34.136   c6.048,7.45,12.748,13.798,19.938,19.496l23.841-27.012c21.368,24.873,48.163,44.941,78.548,58.379l-25.414,55.08   c-0.463,2.132-1.134,4.238-2.056,6.295c-1.153,2.572-2.568,4.966-4.176,7.212l-22.589,48.958h-12.043H131.87   c0,0,0,0.001-0.001,0.001h437.612v-0.001h-93.561l-60.821-118.588c42.509-19.395,77.806-51.842,100.778-92.221l53.604,35.9V55.942   l-66.396,64.171C503.008,120.004,502.926,119.898,502.847,119.79z M230.844,569.48l20.765-110.575   c22.483,7.687,46.595,11.868,71.682,11.868c14.379,0,28.428-1.387,42.04-4.004l19.002,102.711H230.844z M569.48,168.406v140.746   l-31.784-4.303c4.577-17.734,7.016-36.33,7.016-55.496c0-24.364-3.945-47.803-11.216-69.728L569.48,168.406z"
   id="path10" />
	<path
   fill="none"
   d="M383.922,163.941c-7.754,1.669-15.961,2.842-24.493,3.405c-23.037,1.522-44.354-1.58-60.862-7.911   c-1.475,3.817-2.146,7.881-1.87,12.055c1.258,19.075,21.847,33.245,45.981,31.651c24.137-1.595,42.682-18.35,41.421-37.425   C384.06,165.12,383.999,164.528,383.922,163.941z"
   id="path12" />
	<path
   fill="none"
   d="M258.275,104.039c-1.789,0.15-3.477,0.584-5.02,1.23c-16.793,4.636-28.675,13.266-27.122,20.121l8.319-0.218   c1.466-3.742,5.31-7.459,10.685-10.452c-0.112,0.631-0.189,1.271-0.189,1.928c0,6.998,6.619,12.671,14.784,12.671   c8.164,0,14.783-5.673,14.783-12.671c0-3.17-1.366-6.059-3.61-8.281c7.012,0.123,12.851,1.885,16.081,4.923l7.58-3.408   C292.919,102.612,276.773,100.056,258.275,104.039z"
   id="path14" />
	<path
   fill="none"
   d="M464.231,99.234c0.039-0.003,0.078-0.008,0.118-0.011c-0.342-0.254-0.697-0.548-1.065-0.87   C463.6,98.646,463.917,98.938,464.231,99.234z"
   id="path16" />
	<path
   fill="none"
   d="M266.618,20.543c27.508-5.591,55.765-6.688,83.475-2.94l1.008-17.59H236.945l10.434,24.98   C253.919,23.287,260.37,21.813,266.618,20.543z"
   id="path18" />
	<rect
   x="62.586"
   y="506.894"
   fill="none"
   width="0.001"
   height="125.174"
   id="rect20" />
	<path
   fill="none"
   d="M162.869,66.277L107.749,0.012H19.433l122.735,92.141C147.547,82.373,154.616,73.796,162.869,66.277z"
   id="path22" />
	<path
   fill="none"
   d="M102.015,241.902c1.364-2.56,2.771-5.096,4.26-7.583c3.491-5.829,6.822-11.619,10.596-17.289   c0.276-0.415,0.553-0.833,0.829-1.251c-1.282-1.392-2.464-2.946-3.519-4.715c-3.026-5.076-4.903-10.179-5.667-15.594   c-0.227,0.905-0.472,1.802-0.687,2.711L0,168.406v78.471l102.031-5.513C102.025,241.543,102.022,241.723,102.015,241.902z"
   id="path24" />
	<path
   fill="none"
   d="M440.667,51.938c4.095,3.132,7.99,6.559,11.609,10.252l36.863-62.178h-73.217l-7.277,33.472   C419.991,38.372,430.82,44.404,440.667,51.938z"
   id="path26" />
	<path
   fill="#4D4D4D"
   d="M462.073,97.221c0.041,0.041,0.078,0.074,0.118,0.114c0.367,0.336,0.729,0.679,1.093,1.018   c0.368,0.322,0.724,0.616,1.065,0.87c1.366-0.099,2.747-0.125,4.134-0.099c-4.465-9.226-9.702-18.214-16.589-25.836   c-13.168-14.575-30.701-21.994-49.208-26.538c4.892,2.195,9.739,4.632,14.387,7.472C434.739,65.554,447.073,82.888,462.073,97.221z   "
   id="path28" />
	<path
   fill="#FFFF00"
   d="M108.514,195.471c-0.113-0.803-0.197-1.616-0.261-2.434c-2.552-3.289-4.289-7.267-5.409-11.591   c-2.076-2.988-3.539-6.605-4.179-10.852c-2.262-14.99,2.494-31.767,11.955-43.599c0-0.001,0-0.001,0.001-0.002   c0.032-0.047,0.074-0.093,0.107-0.14c0.042-0.053,0.082-0.109,0.124-0.162c0.001-0.001,0.002-0.001,0.002-0.002   c1.569-2.142,4.257-4.095,7.342-5.633c0.571-0.554,1.158-1.092,1.765-1.609c2.604-2.214,5.41-3.887,8.319-5.016   c2.001-2.083,4.248-3.888,6.74-5.356c1.834-6.007,4.242-11.641,7.146-16.922L19.433,0.012H0v168.394l107.828,29.776   C108.043,197.273,108.288,196.376,108.514,195.471z"
   id="path30" />
	<path
   fill="#FFFF00"
   d="M87.359,344.759c1.138,7.551,2.938,14.987,5.408,22.178l34.108-15.306   c-15.031-28.804-23.915-61.323-24.904-95.823c-2.073,4.454-3.995,8.987-5.656,13.667C87.786,293.48,83.531,319.359,87.359,344.759z   "
   id="path32" />
	<path
   fill="#FFFF00"
   d="M81.982,348.967c-4.009-24.876-1.541-50.287,6.213-74.219c3.661-11.297,8.229-22.351,13.82-32.846   c0.006-0.179,0.009-0.359,0.016-0.538L0,246.877v161.689l87.24-39.149C84.892,362.8,83.11,355.968,81.982,348.967z"
   id="path34" />
	<path
   fill="#FFFF00"
   d="M385.668,25.219c7.8,2.315,15.5,5.044,22.978,8.265l7.277-33.472H351.1l-1.008,17.59   C362.089,19.225,373.982,21.75,385.668,25.219z"
   id="path36" />
	<path
   fill="#FFFF00"
   d="M247.379,24.993l-10.434-24.98H107.749l55.121,66.265C185.664,45.51,217.454,32.799,247.379,24.993z"
   id="path38" />
	<path
   fill="#FFFF00"
   d="M415.099,450.893l60.821,118.588h93.561V394.572l-53.604-35.9   C492.905,399.051,457.608,431.498,415.099,450.893z"
   id="path40" />
	<path
   fill="#FFFF00"
   d="M537.696,304.85l31.784,4.303V168.406l-35.984,11.22c7.271,21.925,11.216,45.364,11.216,69.728   C544.712,268.52,542.273,287.115,537.696,304.85z"
   id="path42" />
	<path
   fill="#FFFF00"
   d="M180.422,538.586c-11.577,6.241-24.001,10.733-35.17,17.747c-5.292,3.322-10.505,7.733-13.382,13.147   h35.675h12.043l22.589-48.958C196.663,528.224,188.77,534.086,180.422,538.586z"
   id="path44" />
	<path
   fill="#FFFF00"
   d="M127.02,565.597c6.131-10.181,17.262-16.329,27.682-21.322c19.764-9.473,54.532-22.312,47.898-50.717   c-4.936-21.129-25.51-37.083-43.322-47.479c-11.144-6.504-21.979-13.116-31.874-20.945L0,569.48h125.174   C125.662,568.149,126.267,566.848,127.02,565.597z"
   id="path46" />
	<path
   fill="#FFFF00"
   d="M206.184,485.033c2.827,7.058,3.812,14.677,2.225,21.982l25.414-55.08   c-30.385-13.438-57.18-33.506-78.548-58.379l-23.841,27.012c9.25,7.33,19.311,13.586,29.843,19.731   C179.036,450.663,198.293,465.345,206.184,485.033z"
   id="path48" />
	<path
   fill="#FFFF00"
   d="M489.139,0.012L452.276,62.19c2.82,2.878,5.476,5.915,7.898,9.126c2.15,2.853,4.168,5.815,5.978,8.898   c9.759,8.25,18.794,17.328,26.997,27.129c1.56,1.222,3.02,2.566,4.325,4.068c2.216,2.549,3.973,5.376,5.373,8.378   c0.078,0.108,0.16,0.214,0.238,0.323l66.396-64.171V0.012H489.139z"
   id="path50" />
	<path
   fill="#FFFF00"
   d="M323.291,470.773c-25.087,0-49.198-4.182-71.682-11.868L230.844,569.48h153.488L365.331,466.77   C351.719,469.387,337.67,470.773,323.291,470.773z"
   id="path52" />
	<path
   fill="#4D4D4D"
   d="M476.367,100.316c0.652,0.961-0.216,2.257-1.295,2.257c-1.291,0-2.582,0-3.873,0   c-0.539,0.116-1.108-0.074-1.42-0.742c-0.422-0.905-0.859-1.806-1.296-2.708c-1.387-0.026-2.768,0-4.134,0.099   c-0.04,0.003-0.079,0.008-0.118,0.011c17.546,16.479,32.2,35.997,43.125,57.717c0.26-3.28,0.415-6.563,0.429-9.846   c0.037-9.127-1.02-18.918-4.938-27.315c-1.4-3.001-3.157-5.829-5.373-8.378c-1.306-1.501-2.766-2.846-4.325-4.068   c-4.87-3.817-10.831-6.279-17.045-7.443C476.195,100.038,476.274,100.18,476.367,100.316z"
   id="path54" />
	<path
   fill="#FFD000"
   d="M464.231,99.234c-0.314-0.295-0.631-0.588-0.947-0.881c-0.364-0.339-0.726-0.682-1.093-1.018   c-36.62-33.479-85.373-53.906-138.9-53.906c-59.61,0-113.293,25.338-150.896,65.82c3.871,1.952,7.368,4.545,10.198,7.802   c8.416,9.681,10.36,23.304,10.312,35.693c-0.055,13.834-2.562,27.689-5.339,41.204c-2.841,13.824-7.457,31.056-22.698,35.518   c-5.357,1.568-11.606,2.015-17.768,1.259l0.64,0.349c-0.3-0.13-0.602-0.258-0.904-0.384c-7.239-0.928-14.332-3.522-19.699-7.918   c-1.747-0.907-3.427-1.916-5.015-3.071c-1.083,1.643-2.189,3.28-3.273,4.939c-0.969,8.104-1.481,16.349-1.481,24.713   c0,113.729,92.195,205.925,205.924,205.925c113.729,0,205.925-92.195,205.925-205.925c0-33.229-7.881-64.612-21.859-92.402   C496.431,135.231,481.777,115.713,464.231,99.234z M286.986,113.29c-3.23-3.038-9.069-4.8-16.081-4.923   c2.244,2.222,3.61,5.111,3.61,8.281c0,6.998-6.619,12.671-14.783,12.671c-8.165,0-14.784-5.673-14.784-12.671   c0-0.657,0.077-1.297,0.189-1.928c-5.375,2.993-9.219,6.71-10.685,10.452l-8.319,0.218c-1.553-6.855,10.329-15.485,27.122-20.121   c1.543-0.646,3.23-1.08,5.02-1.23c18.498-3.983,34.644-1.427,36.291,5.843L286.986,113.29z M342.677,203.141   c-24.135,1.594-44.724-12.576-45.981-31.651c-0.276-4.174,0.396-8.238,1.87-12.055c16.509,6.331,37.825,9.433,60.862,7.911   c8.532-0.563,16.739-1.736,24.493-3.405c0.077,0.587,0.139,1.179,0.177,1.775C385.359,184.791,366.814,201.546,342.677,203.141z    M409.097,114.719c0.112,0.631,0.188,1.271,0.188,1.928c0,6.998-6.617,12.671-14.782,12.671c-8.164,0-14.784-5.673-14.784-12.671   c0-3.17,1.367-6.06,3.609-8.281c-7.01,0.123-12.85,1.885-16.081,4.923l-7.577-3.408c1.646-7.27,17.791-9.826,36.288-5.843   c1.788,0.15,3.476,0.584,5.02,1.23c16.793,4.637,28.677,13.267,27.122,20.121l-8.318-0.218   C418.314,121.429,414.47,117.712,409.097,114.719z"
   id="path56" />
	<path
   fill="#4D4D4D"
   d="M134.06,112.428c0.298-1.132,0.624-2.246,0.962-3.353c-2.492,1.468-4.739,3.273-6.74,5.356   c1.88-0.729,3.804-1.211,5.743-1.48C134.01,112.77,134.017,112.591,134.06,112.428z"
   id="path58" />
	<path
   fill="#4D4D4D"
   d="M146.835,230.69c0.302,0.126,0.604,0.254,0.904,0.384l-0.64-0.349c6.162,0.755,12.411,0.309,17.768-1.259   c15.241-4.462,19.857-21.694,22.698-35.518c2.776-13.515,5.284-27.37,5.339-41.204c0.049-12.389-1.896-26.012-10.312-35.693   c-2.831-3.257-6.327-5.85-10.198-7.802c-2.382-1.202-4.908-2.153-7.508-2.872c-3.17,4.569-6.162,9.297-9.044,14.113   c13.324,12.371,17.397,33.051,13.698,50.369c-2.242,10.491-6.927,21.528-16.932,26.74c-6.862,3.575-14.599,4.941-22.291,4.706   c-1.33,6.507-4.627,11.984-8.196,17.396c1.588,1.155,3.268,2.165,5.015,3.071C132.504,227.168,139.596,229.762,146.835,230.69z"
   id="path60" />
	<path
   fill="#4D4D4D"
   d="M108.254,193.037c0.064,0.818,0.147,1.63,0.261,2.434c0.764,5.415,2.641,10.518,5.667,15.594   c1.054,1.769,2.237,3.323,3.519,4.715c2.858-4.337,5.605-8.875,6.692-13.968c-0.262-0.036-0.525-0.065-0.787-0.104   C116.644,200.674,111.705,197.486,108.254,193.037z"
   id="path62" />
	<path
   fill="#00A99D"
   d="M135.742,199.192c11.814-0.978,22.118-6.147,27.129-17.357c5.291-11.835,6.398-25.761,2.974-38.293   c-1.983-7.254-6.07-15.363-11.987-20.997c-0.288,0.014-0.589-0.047-0.874-0.176c-5.08-2.298-10.16-4.595-15.24-6.893   c-4.013-0.059-7.6,0.905-10.802,2.61c1.927-0.357,3.752-0.489,5.302-0.328c7.329,0.761,14.672,3.201,19.957,8.565   c19.595,19.887,5.906,60.034-21.266,64.923c-8.828,1.588-17.354-0.101-23.478-4.913c0.188,0.421,0.369,0.847,0.576,1.256   c3.548,7.043,9.87,10.245,16.92,11.332c1.104-2.843,5.812-2.722,5.792,0.451C132.409,199.39,134.082,199.329,135.742,199.192z"
   id="path64" />
	<path
   fill="#00A99D"
   d="M152.608,197.599c10.005-5.212,14.689-16.249,16.932-26.74c3.7-17.318-0.374-37.998-13.698-50.369   c-0.268,0.448-0.541,0.892-0.807,1.341c-0.277,0.468-0.711,0.691-1.178,0.714c5.917,5.634,10.004,13.743,11.987,20.997   c3.425,12.532,2.317,26.458-2.974,38.293c-5.011,11.21-15.314,16.379-27.129,17.357c-1.66,0.137-3.333,0.198-4.998,0.182   c0,0.123,0.009,0.239-0.006,0.371c-0.102,0.874-0.25,1.723-0.421,2.561C138.009,202.541,145.746,201.174,152.608,197.599z"
   id="path66" />
	<path
   fill="#00A99D"
   d="M126.941,118.087c3.202-1.706,6.789-2.669,10.802-2.61c-0.998-0.452-1.996-0.903-2.994-1.354   c-0.442-0.2-0.683-0.689-0.724-1.171c-1.939,0.269-3.863,0.751-5.743,1.48c-2.909,1.129-5.716,2.802-8.319,5.016   c-0.607,0.517-1.194,1.055-1.765,1.609C120.984,119.667,124.073,118.619,126.941,118.087z"
   id="path68" />
	<path
   fill="#00A99D"
   d="M108.032,187.591c-0.207-0.41-0.387-0.835-0.576-1.256c-1.75-1.375-3.303-3.005-4.611-4.888   c1.12,4.324,2.857,8.302,5.409,11.591c3.451,4.449,8.39,7.637,15.352,8.67c0.261,0.039,0.524,0.069,0.787,0.104   c0.145-0.681,0.266-1.37,0.348-2.071c0.035-0.298,0.114-0.565,0.212-0.817C117.902,197.835,111.58,194.634,108.032,187.591z"
   id="path70" />
	<path
   fill="#00A99D"
   d="M453.422,67.807c-8.136-9.042-17.774-16.603-28.285-22.703c-22.325-12.956-47.665-20.452-73.12-24.14   c-41.041-5.945-81.895-0.934-121.138,12.125c-39.216,13.051-81.667,36.362-93.573,78.914c5.275,2.386,10.552,4.772,15.828,7.159   c9.182-15.401,19.513-30.559,33.383-42.138c20.2-16.865,46.558-25.745,71.778-31.99c28.606-7.084,58.19-10.535,87.656-9.068   c15.092,0.752,30.188,2.341,45.017,5.3c12.996,2.594,26.634,5.53,38.606,11.411c20.012,9.831,33.096,27.133,42.436,46.896   c0.117,0,0.234,0,0.352,0c-3.229-5.527-5.196-11.648-8.429-17.203C460.913,77.184,457.437,72.272,453.422,67.807z"
   id="path72" />
	<path
   fill="#00A99D"
   d="M440.667,51.938c-9.847-7.534-20.676-13.566-32.021-18.454c-7.478-3.221-15.178-5.95-22.978-8.265   c-11.686-3.469-23.579-5.994-35.575-7.616c-27.71-3.747-55.967-2.65-83.475,2.94c-6.248,1.27-12.699,2.744-19.239,4.45   c-29.925,7.806-61.715,20.517-84.51,41.284c-8.253,7.519-15.323,16.096-20.701,25.876c-2.904,5.281-5.312,10.915-7.146,16.922   c-0.338,1.106-0.664,2.221-0.962,3.353c-0.043,0.163-0.051,0.342-0.035,0.523c0.041,0.482,0.282,0.971,0.724,1.171   c0.998,0.451,1.996,0.903,2.994,1.354c5.08,2.297,10.16,4.595,15.24,6.893c0.285,0.129,0.586,0.19,0.874,0.176   c0.467-0.022,0.9-0.246,1.178-0.714c0.266-0.45,0.539-0.894,0.807-1.341c2.882-4.816,5.874-9.544,9.044-14.113   c10.417-15.014,22.696-28.36,38.872-37.839c12.324-7.222,26.304-12.045,39.886-16.293c14.25-4.457,28.876-7.681,43.615-10.021   c31.076-4.933,62.693-4.6,93.754,0.302c7.24,1.143,14.529,2.469,21.674,4.224c18.507,4.544,36.04,11.963,49.208,26.538   c6.887,7.622,12.124,16.611,16.589,25.836c0.437,0.901,0.874,1.803,1.296,2.708c0.312,0.668,0.881,0.858,1.42,0.742   c1.291,0,2.582,0,3.873,0c1.079,0,1.947-1.296,1.295-2.257c-0.093-0.136-0.172-0.278-0.263-0.415   c-3.314-5.036-5.203-10.674-7.93-16.021c-0.635-1.244-1.316-2.462-2.022-3.666c-1.81-3.083-3.827-6.045-5.978-8.898   c-2.423-3.212-5.078-6.248-7.898-9.126C448.657,58.497,444.761,55.07,440.667,51.938z M472.361,99.573c-0.117,0-0.234,0-0.352,0   c-9.34-19.764-22.424-37.066-42.436-46.896c-11.973-5.881-25.61-8.817-38.606-11.411c-14.828-2.959-29.925-4.548-45.017-5.3   c-29.466-1.467-59.05,1.984-87.656,9.068c-25.221,6.245-51.578,15.125-71.778,31.99c-13.87,11.579-24.201,26.736-33.383,42.138   c-5.276-2.386-10.553-4.772-15.828-7.159c11.906-42.552,54.357-65.863,93.573-78.914c39.243-13.059,80.097-18.07,121.138-12.125   c25.455,3.688,50.795,11.184,73.12,24.14c10.511,6.1,20.149,13.661,28.285,22.703c4.016,4.465,7.491,9.377,10.511,14.563   C467.165,87.925,469.133,94.046,472.361,99.573z"
   id="path74" />
	<path
   fill="#65C8D0"
   d="M104.504,178.784c9.182,15.682,32.301,11.511,42.953-0.198c9.719-10.682,14.496-28.254,8.284-41.876   c-3.134-6.872-8.716-12.241-16.027-14.477c-4.599-1.407-8.8-1.916-13.468-0.559c-4.231,1.23-10.438,2.931-13.063,6.815   c-0.051,0.075-0.108,0.137-0.165,0.198c-0.024,0.034-0.041,0.069-0.068,0.103c-0.479,0.575-0.938,1.167-1.375,1.775   C102.784,142.993,96.172,164.553,104.504,178.784z"
   id="path76" />
	<path
   fill="#65C8D0"
   d="M107.456,186.334c6.125,4.812,14.65,6.5,23.478,4.913c27.172-4.889,40.86-45.036,21.266-64.923   c-5.285-5.364-12.628-7.804-19.957-8.565c-1.55-0.161-3.375-0.029-5.302,0.328c-2.868,0.532-5.958,1.58-8.744,2.969   c-3.084,1.539-5.773,3.492-7.342,5.633c0,0.001-0.001,0.001-0.002,0.002c-0.042,0.053-0.082,0.109-0.124,0.162   c-0.033,0.047-0.076,0.092-0.107,0.14c0,0.001-0.001,0.001-0.001,0.002c-9.461,11.832-14.217,28.609-11.955,43.599   c0.641,4.246,2.104,7.863,4.179,10.852C104.153,183.329,105.706,184.959,107.456,186.334z M111.575,130.565   c0.438-0.608,0.896-1.2,1.375-1.775c0.027-0.033,0.044-0.068,0.068-0.103c0.057-0.062,0.114-0.123,0.165-0.198   c2.626-3.884,8.832-5.585,13.063-6.815c4.668-1.357,8.869-0.848,13.468,0.559c7.312,2.236,12.894,7.605,16.027,14.477   c6.212,13.622,1.435,31.194-8.284,41.876c-10.652,11.709-33.771,15.88-42.953,0.198   C96.172,164.553,102.784,142.993,111.575,130.565z"
   id="path78" />
	<path
   fill="#65C8D0"
   d="M145.252,556.333c11.169-7.014,23.593-11.506,35.17-17.747c8.348-4.5,16.241-10.362,21.755-18.063   c1.608-2.246,3.023-4.64,4.176-7.212c0.922-2.057,1.593-4.163,2.056-6.295c1.587-7.306,0.603-14.925-2.225-21.982   c-7.892-19.688-27.148-34.37-44.907-44.733c-10.533-6.146-20.594-12.401-29.843-19.731c-7.19-5.698-13.89-12.046-19.938-19.496   c-8.288-10.207-14.497-21.811-18.729-34.136c-2.469-7.19-4.27-14.627-5.408-22.178c-3.828-25.399,0.427-51.278,8.955-75.285   c1.662-4.679,3.583-9.212,5.656-13.667c4.042-8.687,8.696-17.053,13.39-25.472c1.088-1.952,2.273-3.837,3.488-5.696   c1.084-1.659,2.189-3.296,3.273-4.939c3.568-5.412,6.866-10.889,8.196-17.396c0.171-0.837,0.319-1.687,0.421-2.561   c0.016-0.132,0.006-0.248,0.006-0.371c0.019-3.173-4.689-3.293-5.792-0.451c-0.098,0.252-0.177,0.519-0.212,0.817   c-0.082,0.702-0.203,1.39-0.348,2.071c-1.086,5.094-3.833,9.631-6.692,13.968c-0.276,0.418-0.553,0.836-0.829,1.251   c-3.773,5.67-7.104,11.46-10.596,17.289c-1.489,2.487-2.896,5.023-4.26,7.583c-5.591,10.495-10.159,21.549-13.82,32.846   c-7.754,23.932-10.222,49.343-6.213,74.219c1.128,7.001,2.91,13.833,5.258,20.45c4.595,12.951,11.402,25.062,20.014,35.896   c6.026,7.58,12.833,14.031,20.15,19.821c9.896,7.829,20.73,14.441,31.874,20.945c17.812,10.396,38.387,26.35,43.322,47.479   c6.634,28.404-28.135,41.244-47.898,50.717c-10.42,4.993-21.551,11.142-27.682,21.322c-0.753,1.251-1.358,2.553-1.847,3.884v0.001   h6.695c0,0,0-0.001,0.001-0.001C134.747,564.066,139.96,559.655,145.252,556.333z"
   id="path80" />
</g>
<path
   style="opacity:0.772;vector-effect:none;fill:#fff6cc;fill-opacity:0.83529412;fill-rule:evenodd;stroke:#acbbc7;stroke-width:0.6042127;stroke-linecap:butt;stroke-linejoin:round;stroke-miterlimit:4;stroke-dasharray:none;stroke-dashoffset:0;stroke-opacity:1"
   d="m 332.07233,202.52316 c -8.23016,-1.06507 -16.13637,-4.26431 -22.66291,-9.17054 -5.73282,-4.30957 -9.60659,-9.82883 -11.47993,-16.35639 -1.12329,-3.91402 -1.00425,-12.57203 0.21405,-15.56911 l 0.66454,-1.63478 3.49289,1.21526 c 6.05828,2.10783 17.27557,4.63804 25.30625,5.70817 14.52883,1.93605 38.50808,1.13405 52.23713,-1.7471 l 4.07203,-0.85454 v 2.86031 c 0,8.67587 -2.94883,15.14117 -10.20032,22.3642 -7.6176,7.58771 -16.09866,11.58602 -27.9997,13.20019 -5.29312,0.71792 -7.99936,0.71481 -13.64403,-0.0157 z"
   id="path910"
   inkscape:connector-curvature="0" /><path
   style="opacity:0.772;vector-effect:none;fill:#fff6cc;fill-opacity:0.83529412;fill-rule:evenodd;stroke:#acbbc7;stroke-width:0.6042127;stroke-linecap:butt;stroke-linejoin:round;stroke-miterlimit:4;stroke-dasharray:none;stroke-dashoffset:0;stroke-opacity:1"
   d="m 389.9451,128.41391 c -5.86865,-1.78516 -9.64413,-6.0839 -9.74472,-11.09526 -0.0622,-3.09673 0.4579,-4.96582 1.98535,-7.13536 0.62006,-0.8807 1.12738,-1.71109 1.12738,-1.8453 0,-0.1342 -1.95405,-0.0352 -4.34235,0.21997 -2.92118,0.31212 -5.59374,1.08004 -8.16596,2.34634 l -3.82362,1.88236 -3.29602,-1.36613 c -1.81282,-0.75137 -3.29603,-1.60549 -3.29603,-1.89804 0,-1.42033 1.52126,-3.00481 4.177,-4.35057 12.26783,-6.216584 42.00789,-1.17781 56.64461,9.59713 4.17637,3.07447 6.08285,5.54307 6.56222,8.49709 l 0.34767,2.14246 -4.15506,-0.41671 c -2.28529,-0.22919 -4.33584,-0.71565 -4.5568,-1.08102 -1.54574,-2.55603 -3.65686,-4.79521 -6.40447,-6.79299 -3.97329,-2.88896 -4.59427,-3.119 -4.08459,-1.51313 0.62169,1.95877 -0.73942,5.93974 -2.85442,8.34859 -3.63784,4.14327 -10.72049,6.10309 -16.12019,4.46057 z"
   id="path912"
   inkscape:connector-curvature="0" /><path
   style="opacity:0.772;vector-effect:none;fill:#fff6cc;fill-opacity:0.83529412;fill-rule:evenodd;stroke:#acbbc7;stroke-width:0.6042127;stroke-linecap:butt;stroke-linejoin:round;stroke-miterlimit:4;stroke-dasharray:none;stroke-dashoffset:0;stroke-opacity:1"
   d="m 254.03637,128.05215 c -4.88242,-1.79183 -8.17743,-5.75115 -8.7792,-10.54921 l -0.39284,-3.13223 -3.7521,2.76424 c -2.06365,1.52033 -4.47507,3.85673 -5.35871,5.192 -1.19216,1.80147 -2.01391,2.42949 -3.18543,2.43441 -0.86834,0.004 -2.59681,0.17491 -3.84104,0.38057 -2.1445,0.35446 -2.26224,0.28976 -2.26224,-1.24313 0,-5.48523 8.50626,-12.03787 21.6256,-16.65889 9.52135,-3.3537 15.7959,-4.43126 26.03216,-4.47063 6.75167,-0.026 9.53807,0.21088 12.21338,1.03814 3.40576,1.05313 7.70423,4.11631 7.68399,5.47578 -0.005,0.38037 -1.48103,1.32812 -3.27859,2.10611 l -3.2683,1.41451 -3.80974,-1.85532 c -3.45192,-1.68106 -12.59291,-3.52092 -12.53823,-2.52364 0.0104,0.18887 0.68764,1.42928 1.50507,2.75645 3.79052,6.15427 0.27498,14.19502 -7.40448,16.93555 -2.91254,1.03938 -8.26519,1.00842 -11.1893,-0.0647 z"
   id="path914"
   inkscape:connector-curvature="0" /></svg>